<?xml version="1.0" encoding="UTF-8"?>
<svg  viewBox="0 0 64 64" id="main" xmlns="http://www.w3.org/2000/svg" xmlns:xlink="http://www.w3.org/1999/xlink">
  <style>
    :root > svg {
      display: none
    }
    :root > svg:target {
      display: block
    }
  </style>
  <defs>
    <path id="circle" d="M32,0C14.336,0,0,14.336,0,32s14.336,32,32,32,32-14.336,32-32S49.664,0,32,0Zm0,59.733c-15.317,0-27.733-12.416-27.733-27.733S16.683,4.267,32,4.267s27.733,12.416,27.733,27.733-12.416,27.733-27.733,27.733Z" fill-rule="evenodd"/>
    <path id="jackdaw" d="M42.125,24.105c-.064-.085-.149-.149-.213-.213-.725-.619-1.813-.512-2.411,.213l-9.557,11.392-5.12-4.971c0-.021-.021-.043-.043-.064-.811-.768-2.091-.747-2.859,.064-.789,.832-.789,2.133,0,2.987l6.592,6.4c.405,.405,.96,.619,1.515,.597,.341,0,.661-.107,.939-.299,.171-.085,.32-.192,.469-.299,.043-.085,.107-.171,.149-.235l10.539-12.587c.725-.875,.725-2.133,0-2.987Z" fill-rule="evenodd"/>
  </defs>

  <svg id="empty" viewBox="0 0 64 64" xmlns="http://www.w3.org/2000/svg" xmlns:xlink="http://www.w3.org/1999/xlink">
    <use xlink:href="#circle"/>
  </svg>

  <svg id="checked" viewBox="0 0 64 64" xmlns="http://www.w3.org/2000/svg" xmlns:xlink="http://www.w3.org/1999/xlink">
    <use xlink:href="#circle"/>
    <use xlink:href="#jackdaw"/>
  </svg>
</svg>